<?xml version="1.0" encoding="utf-8"?>
<!-- Generator: Adobe Illustrator 16.0.0, SVG Export Plug-In . SVG Version: 6.00 Build 0)  -->
<!DOCTYPE svg PUBLIC "-//W3C//DTD SVG 1.1 Basic//EN" "http://www.w3.org/Graphics/SVG/1.1/DTD/svg11-basic.dtd">
<svg version="1.1" baseProfile="basic" xmlns="http://www.w3.org/2000/svg" xmlns:xlink="http://www.w3.org/1999/xlink" x="0px"
	 y="0px" width="391.999px" height="51.631px" viewBox="0 0 391.999 51.631" xml:space="preserve">
<g id="Layer_2">
</g>
<g id="Layer_1">
	<g>
		<text transform="matrix(1 0 0 1 0 44.7993)" fill="#255AA9" font-family="'AmarilloUSAF'" font-size="56">THE AMENDABLES</text>
		<g>
			<linearGradient id="SVGID_1_" gradientUnits="userSpaceOnUse" x1="14" y1="44.7993" x2="14" y2="11.1992">
				<stop  offset="0" style="stop-color:#255AA9"/>
				<stop  offset="0.3545" style="stop-color:#3272CC"/>
				<stop  offset="0.7759" style="stop-color:#3F8BF1"/>
				<stop  offset="1" style="stop-color:#4495FF"/>
			</linearGradient>
			<path fill="url(#SVGID_1_)" d="M25.2,16.799h-8.4v28h-5.6v-28H2.8v-5.6h22.4V16.799z"/>
			<linearGradient id="SVGID_2_" gradientUnits="userSpaceOnUse" x1="42" y1="44.7993" x2="42" y2="11.1992">
				<stop  offset="0" style="stop-color:#255AA9"/>
				<stop  offset="0.3545" style="stop-color:#3272CC"/>
				<stop  offset="0.7759" style="stop-color:#3F8BF1"/>
				<stop  offset="1" style="stop-color:#4495FF"/>
			</linearGradient>
			<path fill="url(#SVGID_2_)" d="M53.2,44.799h-5.6v-14H36.4v14h-5.6v-33.6h5.6v14h11.2v-14h5.6V44.799z"/>
			<linearGradient id="SVGID_3_" gradientUnits="userSpaceOnUse" x1="70" y1="44.7993" x2="70" y2="11.1992">
				<stop  offset="0" style="stop-color:#255AA9"/>
				<stop  offset="0.3545" style="stop-color:#3272CC"/>
				<stop  offset="0.7759" style="stop-color:#3F8BF1"/>
				<stop  offset="1" style="stop-color:#4495FF"/>
			</linearGradient>
			<path fill="url(#SVGID_3_)" d="M81.2,44.799H58.8v-33.6h22.4v5.6H64.4v8.4h8.4v5.6h-8.4v8.4h16.8V44.799z"/>
			<linearGradient id="SVGID_4_" gradientUnits="userSpaceOnUse" x1="114.7432" y1="44.7993" x2="114.7432" y2="11.1992">
				<stop  offset="0" style="stop-color:#255AA9"/>
				<stop  offset="0.3545" style="stop-color:#3272CC"/>
				<stop  offset="0.7759" style="stop-color:#3F8BF1"/>
				<stop  offset="1" style="stop-color:#4495FF"/>
			</linearGradient>
			<path fill="url(#SVGID_4_)" d="M125.887,44.799h-5.768l-1.4-5.6h-7.952l-1.4,5.6h-5.768l8.12-33.6h6.048L125.887,44.799z
				 M117.319,33.599l-2.576-10.36l-2.576,10.36H117.319z"/>
			<linearGradient id="SVGID_5_" gradientUnits="userSpaceOnUse" x1="148.3989" y1="44.7993" x2="148.3989" y2="11.1992">
				<stop  offset="0" style="stop-color:#255AA9"/>
				<stop  offset="0.3545" style="stop-color:#3272CC"/>
				<stop  offset="0.7759" style="stop-color:#3F8BF1"/>
				<stop  offset="1" style="stop-color:#4495FF"/>
			</linearGradient>
			<path fill="url(#SVGID_5_)" d="M165.199,44.799h-5.6V25.535l-8.176,19.264h-6.104l-8.12-19.264v19.264h-5.6v-33.6h5.6
				l11.2,26.376l11.2-26.376h5.6V44.799z"/>
			<linearGradient id="SVGID_6_" gradientUnits="userSpaceOnUse" x1="181.999" y1="44.7993" x2="181.999" y2="11.1992">
				<stop  offset="0" style="stop-color:#255AA9"/>
				<stop  offset="0.3545" style="stop-color:#3272CC"/>
				<stop  offset="0.7759" style="stop-color:#3F8BF1"/>
				<stop  offset="1" style="stop-color:#4495FF"/>
			</linearGradient>
			<path fill="url(#SVGID_6_)" d="M193.199,44.799h-22.4v-33.6h22.4v5.6h-16.8v8.4h8.4v5.6h-8.4v8.4h16.8V44.799z"/>
			<linearGradient id="SVGID_7_" gradientUnits="userSpaceOnUse" x1="209.999" y1="44.7993" x2="209.999" y2="11.1992">
				<stop  offset="0" style="stop-color:#255AA9"/>
				<stop  offset="0.3545" style="stop-color:#3272CC"/>
				<stop  offset="0.7759" style="stop-color:#3F8BF1"/>
				<stop  offset="1" style="stop-color:#4495FF"/>
			</linearGradient>
			<path fill="url(#SVGID_7_)" d="M221.199,44.799h-5.6l-11.2-21.392v21.392h-5.6v-33.6l5.6,0.056l11.2,21.392V11.199h5.6V44.799z"
				/>
			<linearGradient id="SVGID_8_" gradientUnits="userSpaceOnUse" x1="237.999" y1="44.7993" x2="237.999" y2="11.1992">
				<stop  offset="0" style="stop-color:#255AA9"/>
				<stop  offset="0.3545" style="stop-color:#3272CC"/>
				<stop  offset="0.7759" style="stop-color:#3F8BF1"/>
				<stop  offset="1" style="stop-color:#4495FF"/>
			</linearGradient>
			<path fill="url(#SVGID_8_)" d="M249.199,39.199l-5.601,5.6h-16.8v-33.6h16.8l5.601,5.6V39.199z M243.599,36.903V19.095
				l-2.296-2.296h-8.903v22.4h8.903L243.599,36.903z"/>
			<linearGradient id="SVGID_9_" gradientUnits="userSpaceOnUse" x1="265.9434" y1="44.7993" x2="265.9434" y2="11.1992">
				<stop  offset="0" style="stop-color:#255AA9"/>
				<stop  offset="0.3545" style="stop-color:#3272CC"/>
				<stop  offset="0.7759" style="stop-color:#3F8BF1"/>
				<stop  offset="1" style="stop-color:#4495FF"/>
			</linearGradient>
			<path fill="url(#SVGID_9_)" d="M277.087,44.799h-5.768l-1.4-5.6h-7.952l-1.399,5.6h-5.769l8.12-33.6h6.048L277.087,44.799z
				 M268.519,33.599l-2.575-10.36l-2.576,10.36H268.519z"/>
			<linearGradient id="SVGID_10_" gradientUnits="userSpaceOnUse" x1="293.999" y1="44.7993" x2="293.999" y2="11.1992">
				<stop  offset="0" style="stop-color:#255AA9"/>
				<stop  offset="0.3545" style="stop-color:#3272CC"/>
				<stop  offset="0.7759" style="stop-color:#3F8BF1"/>
				<stop  offset="1" style="stop-color:#4495FF"/>
			</linearGradient>
			<path fill="url(#SVGID_10_)" d="M305.199,39.199l-5.601,5.6h-16.8v-33.6h16.8l5.601,5.6v8.4l-2.8,2.8l2.8,2.8V39.199z
				 M299.599,22.903v-3.808l-2.296-2.296h-8.903v8.4h8.903L299.599,22.903z M299.599,36.903v-3.808l-2.296-2.296h-8.903v8.4h8.903
				L299.599,36.903z"/>
			<linearGradient id="SVGID_11_" gradientUnits="userSpaceOnUse" x1="321.999" y1="44.7993" x2="321.999" y2="11.1992">
				<stop  offset="0" style="stop-color:#255AA9"/>
				<stop  offset="0.3545" style="stop-color:#3272CC"/>
				<stop  offset="0.7759" style="stop-color:#3F8BF1"/>
				<stop  offset="1" style="stop-color:#4495FF"/>
			</linearGradient>
			<path fill="url(#SVGID_11_)" d="M333.199,44.799h-22.4v-33.6h5.601v28h16.8V44.799z"/>
			<linearGradient id="SVGID_12_" gradientUnits="userSpaceOnUse" x1="349.999" y1="44.7993" x2="349.999" y2="11.1992">
				<stop  offset="0" style="stop-color:#255AA9"/>
				<stop  offset="0.3545" style="stop-color:#3272CC"/>
				<stop  offset="0.7759" style="stop-color:#3F8BF1"/>
				<stop  offset="1" style="stop-color:#4495FF"/>
			</linearGradient>
			<path fill="url(#SVGID_12_)" d="M361.199,44.799h-22.4v-33.6h22.4v5.6h-16.8v8.4h8.399v5.6h-8.399v8.4h16.8V44.799z"/>
			<linearGradient id="SVGID_13_" gradientUnits="userSpaceOnUse" x1="377.999" y1="44.7993" x2="377.999" y2="11.1992">
				<stop  offset="0" style="stop-color:#255AA9"/>
				<stop  offset="0.3545" style="stop-color:#3272CC"/>
				<stop  offset="0.7759" style="stop-color:#3F8BF1"/>
				<stop  offset="1" style="stop-color:#4495FF"/>
			</linearGradient>
			<path fill="url(#SVGID_13_)" d="M389.199,39.199l-5.601,5.6h-11.199l-5.601-5.6v-2.8h5.601v0.504l2.296,2.296h6.607l2.296-2.296
				v-3.808l-2.296-2.296h-8.903l-5.601-5.6v-8.4l5.601-5.6h11.199l5.601,5.6v2.8h-5.601v-0.504l-2.296-2.296h-6.607l-2.296,2.296
				v3.808l2.296,2.296h8.903l5.601,5.6V39.199z"/>
		</g>
		
			<text transform="matrix(1 0 0 1 0 44.7993)" fill="none" stroke="#FFFFFF" stroke-miterlimit="10" font-family="'AmarilloUSAF'" font-size="56">THE AMENDABLES</text>
	</g>
</g>
</svg>
